<?xml version="1.0" encoding="UTF-8" standalone="no"?>
<!-- Generator: Adobe Illustrator 16.0.3, SVG Export Plug-In . SVG Version: 6.00 Build 0)  -->

<svg
   xmlns:dc="http://purl.org/dc/elements/1.1/"
   xmlns:cc="http://creativecommons.org/ns#"
   xmlns:rdf="http://www.w3.org/1999/02/22-rdf-syntax-ns#"
   xmlns:svg="http://www.w3.org/2000/svg"
   xmlns="http://www.w3.org/2000/svg"
   xmlns:sodipodi="http://sodipodi.sourceforge.net/DTD/sodipodi-0.dtd"
   xmlns:inkscape="http://www.inkscape.org/namespaces/inkscape"
   version="1.1"
   width="200px"
   height="200px"
   id="svg108"
   sodipodi:docname="Cathar_cross_white.svg"
   inkscape:version="0.92.4 (5da689c313, 2019-01-14)">
  <metadata
     id="metadata114">
    <rdf:RDF>
      <cc:Work
         rdf:about="">
        <dc:format>image/svg+xml</dc:format>
        <dc:type
           rdf:resource="http://purl.org/dc/dcmitype/StillImage" />
        <dc:title></dc:title>
      </cc:Work>
    </rdf:RDF>
  </metadata>
  <defs
     id="defs112" />
  <sodipodi:namedview
     pagecolor="#ffffff"
     bordercolor="#666666"
     borderopacity="1"
     objecttolerance="10"
     gridtolerance="10"
     guidetolerance="10"
     inkscape:pageopacity="0"
     inkscape:pageshadow="2"
     inkscape:window-width="1366"
     inkscape:window-height="704"
     id="namedview110"
     showgrid="false"
     inkscape:zoom="2.58"
     inkscape:cx="21.317829"
     inkscape:cy="100"
     inkscape:window-x="0"
     inkscape:window-y="27"
     inkscape:window-maximized="1"
     inkscape:current-layer="svg108" />
  <path
     fill="none"
     stroke="#000"
     stroke-width="9"
     d="M162.566,70.382c-15.725,12.46-36.271,19.566-53.348,20.397  c0.831-17.077,7.938-37.622,20.397-53.345c-10.304-3.141-20.8-8.271-29.587-17.969c-8.211,8.557-18.015,14.062-29.779,17.714  c11.323,14.706,20.586,35.393,20.767,53.613c-17.124-0.776-37.787-7.893-53.583-20.41c-3.141,10.306-8.271,20.802-17.969,29.588  c8.557,8.211,14.062,18.016,17.714,29.78c14.767-11.369,35.565-20.663,53.84-20.77c-0.105,18.274-9.399,39.072-20.769,53.84  c11.764,3.652,21.568,9.158,29.779,17.715c8.788-9.698,19.284-14.828,29.587-17.969c-12.518-15.799-19.635-36.461-20.41-53.584  c18.22,0.181,38.907,9.444,53.614,20.768c3.652-11.764,9.158-21.568,17.715-29.78C170.837,91.184,165.707,80.688,162.566,70.382z"
     id="path82"
     style="fill:#ffffff;stroke:#ffffff;stroke-opacity:1;fill-opacity:0.00392157" />
  <circle
     cx="100"
     cy="7.5"
     r="7.5"
     id="circle84"
     style="fill:#ffffff" />
  <circle
     cx="100"
     cy="192.5"
     r="7.5"
     id="circle86"
     style="fill:#ffffff" />
  <circle
     cx="7.5"
     cy="100"
     r="7.5"
     id="circle88"
     style="fill:#ffffff" />
  <circle
     cx="192.5"
     cy="100"
     r="7.5"
     id="circle90"
     style="fill:#ffffff" />
  <circle
     cx="57.5"
     cy="32.5"
     r="7.5"
     id="circle92"
     style="fill:#ffffff" />
  <circle
     cx="142.5"
     cy="32.5"
     r="7.5"
     id="circle94"
     style="fill:#ffffff" />
  <circle
     cx="57.5"
     cy="167.5"
     r="7.5"
     id="circle96"
     style="fill:#ffffff" />
  <circle
     cx="142.5"
     cy="167.5"
     r="7.5"
     id="circle98"
     style="fill:#ffffff" />
  <circle
     cx="32.5"
     cy="57.5"
     r="7.5"
     id="circle100"
     style="fill:#ffffff" />
  <circle
     cx="167.5"
     cy="57.5"
     r="7.5"
     id="circle102"
     style="fill:#ffffff" />
  <circle
     cx="32.5"
     cy="142.5"
     r="7.5"
     id="circle104"
     style="fill:#ffffff" />
  <circle
     cx="167.5"
     cy="142.5"
     r="7.5"
     id="circle106"
     style="fill:#ffffff" />
</svg>
